# xmcd
#
# Track frame offsets:
#	150
#	24888
#	45322
#	66159
#	89189
#	103506
#	133397
#	155806
#	173099
#	187385
#
# Disc length: 2757 seconds
#
# Revision: 1
# Processed by: cddbd v1.5.2PL0 Copyright (c) Steve Scherf et al.
# Submitted via: audiograbber 1.83.01
#
DISCID=8e0ac30a
DTITLE=Salsa Mayor - Fuerte y Caliente - Fuerte y Caliente
DYEAR=1979
DGENRE=Salsa
TTITLE0=Ya llegue
TTITLE1=El pagare
TTITLE2=Quien la Tumbo
TTITLE3=Cuidadito compay
TTITLE4=El santo nombre
TTITLE5=El dolor Campesino
TTITLE6=El guarachero
TTITLE7=Si tu no, La otra
TTITLE8=Potpurri Infntil
TTITLE9=Con maña si
EXTD=
EXTT0=
EXTT1=
EXTT2=
EXTT3=
EXTT4=
EXTT5=
EXTT6=
EXTT7=
EXTT8=
EXTT9=
PLAYORDER=
